<svg xmlns="http://www.w3.org/2000/svg" xmlns:xlink="http://www.w3.org/1999/xlink" width="133" height="11"><defs><path id="a" d="M.852.9H2.77v1.92H.852z"/><path id="c" d="M.082.868h16.882V10H.082z"/><path id="e" d="M.902.867h18.403V10H.902z"/><path id="g" d="M.917.679H19.94V10H.917z"/><path id="i" d="M.345.868h16.882V10H.345z"/><path id="k" d="M0 .867h16.882V10H0z"/></defs><g fill="none" fill-rule="evenodd"><g><g><g transform="translate(130 .322)"><mask id="b" fill="#fff"><use xlink:href="#a"/></mask><path fill="#212C33" d="M2.264 1.64c0-.193-.125-.311-.332-.311h-.478v1.065h.1V1.95H1.9l.244.443h.114l-.255-.45a.298.298 0 00.261-.304m-.327.215h-.384v-.43h.38c.087 0 .232.027.232.215 0 .148-.114.215-.228.215M1.81.9a.96.96 0 10.003 1.919.96.96 0 00-.003-1.92m0 1.826a.861.861 0 01-.859-.864c0-.481.384-.868.86-.868.474 0 .861.387.861.868a.864.864 0 01-.862.864" mask="url(#b)"/></g><path fill="#4C4C4C" d="M92.699 4.277l-.766 2.2a3.874 3.874 0 01-3.657 2.598h-8.902c-.454 0-.865-.213-1.128-.583a1.369 1.369 0 01-.18-1.258l.767-2.199a3.875 3.875 0 013.657-2.599h8.9c.455 0 .868.212 1.13.582.264.371.328.83.179 1.26m.838-1.98a2.6 2.6 0 00-2.146-1.109H82.49a5.125 5.125 0 00-4.835 3.436l-.767 2.2a2.608 2.608 0 00.34 2.39 2.604 2.604 0 002.146 1.106h8.902a5.124 5.124 0 004.835-3.436l.766-2.198a2.599 2.599 0 00-.34-2.39M49.78 4.277l-.767 2.2a3.874 3.874 0 01-3.657 2.598h-8.901a1.37 1.37 0 01-1.13-.583 1.365 1.365 0 01-.178-1.258l.767-2.199a3.875 3.875 0 013.656-2.599h8.902c.454 0 .866.212 1.128.582.265.371.33.83.18 1.26m-1.308-3.089H39.57a5.127 5.127 0 00-4.835 3.436l-.766 2.2a2.608 2.608 0 00.34 2.39 2.602 2.602 0 002.146 1.106h8.9a5.127 5.127 0 004.837-3.436l.766-2.198a2.608 2.608 0 00-.34-2.39 2.6 2.6 0 00-2.146-1.108"/><g transform="translate(94 .322)"><mask id="d" fill="#fff"><use xlink:href="#c"/></mask><path fill="#4C4C4C" d="M16.819 4.189a2.463 2.463 0 00-.316-2.27A2.464 2.464 0 0014.468.869H3.237a.624.624 0 000 1.247h11.23c.41 0 .782.19 1.018.526.236.334.295.747.159 1.134A1.842 1.842 0 0113.912 5H2.877C2.09 5 1.39 5.5 1.132 6.24L.117 9.172a.622.622 0 00.589.83.627.627 0 00.59-.42L2.31 6.65a.599.599 0 01.566-.403h7.786l2.927 3.526c.213.257.63.29.879.082a.624.624 0 00.08-.878l-2.266-2.73h1.629a3.089 3.089 0 002.907-2.06" mask="url(#d)"/></g><g transform="translate(58 .322)"><mask id="f" fill="#fff"><use xlink:href="#e"/></mask><path fill="#4C4C4C" d="M16.56 5.001H3.67l.424-1.247a2.42 2.42 0 012.291-1.64h12.296a.624.624 0 100-1.247H6.385a3.664 3.664 0 00-3.471 2.487L.936 9.176a.617.617 0 00.389.79.624.624 0 00.791-.39l1.132-3.329H16.56a.624.624 0 100-1.246" mask="url(#f)"/></g><g transform="translate(110 .322)"><mask id="h" fill="#fff"><use xlink:href="#g"/></mask><path fill="#4C4C4C" d="M19.413.863L19.41.862a1.132 1.132 0 00-1.4.13L9.915 8.618a.402.402 0 01-.348.1.396.396 0 01-.288-.223l-3.253-7.03A1.37 1.37 0 004.73.684a1.345 1.345 0 00-1.207.914L.95 9.176a.62.62 0 00.39.79.623.623 0 00.791-.39l2.572-7.578c.006-.016.022-.067.088-.07.09-.004.095.039.103.059l3.254 7.03c.225.486.655.823 1.181.925.525.1 1.05-.05 1.44-.418l7.793-7.34-2.359 6.993a.62.62 0 00.866.758.623.623 0 00.316-.36l2.493-7.385a1.13 1.13 0 00-.465-1.327" mask="url(#h)"/></g><path fill="#4C4C4C" d="M57.852 5.323h-5.055a.624.624 0 000 1.246h5.055a.624.624 0 100-1.246"/><g transform="translate(16 .322)"><mask id="j" fill="#fff"><use xlink:href="#i"/></mask><path fill="#4C4C4C" d="M14.73.868H3.519a.624.624 0 000 1.246H14.73c.409 0 .78.192 1.017.526.236.334.295.748.159 1.135a1.843 1.843 0 01-1.734 1.227H3.139c-.786 0-1.486.498-1.744 1.24L.379 9.171a.62.62 0 00.029.476c.073.15.199.263.352.316a.626.626 0 00.797-.383l1.017-2.93a.598.598 0 01.565-.404h7.786l2.929 3.527c.213.256.63.29.876.082a.619.619 0 00.082-.877l-2.267-2.731h1.628a3.088 3.088 0 002.909-2.06 2.462 2.462 0 00-.317-2.267A2.463 2.463 0 0014.73.868" mask="url(#j)"/></g><g transform="translate(0 .322)"><mask id="l" fill="#fff"><use xlink:href="#k"/></mask><path fill="#4C4C4C" d="M16.421 1.92A2.466 2.466 0 0014.386.867H3.173a.625.625 0 000 1.247h11.213c.41 0 .781.192 1.017.527.237.334.294.747.16 1.133a1.841 1.841 0 01-1.734 1.227H2.794c-.786 0-1.486.498-1.744 1.24L.034 9.172a.622.622 0 00.59.828.626.626 0 00.59-.42l1.015-2.93a.598.598 0 01.565-.403H13.83a3.084 3.084 0 002.907-2.058 2.464 2.464 0 00-.315-2.269" mask="url(#l)"/></g></g></g></g></svg>